<?xml version="1.0" encoding="UTF-8" standalone="no"?>
<!-- Created with Inkscape (http://www.inkscape.org/) -->

<svg
   xmlns:dc="http://purl.org/dc/elements/1.1/"
   xmlns:cc="http://creativecommons.org/ns#"
   xmlns:rdf="http://www.w3.org/1999/02/22-rdf-syntax-ns#"
   xmlns:svg="http://www.w3.org/2000/svg"
   xmlns="http://www.w3.org/2000/svg"
   xmlns:sodipodi="http://sodipodi.sourceforge.net/DTD/sodipodi-0.dtd"
   xmlns:inkscape="http://www.inkscape.org/namespaces/inkscape"
   width="50mm"
   height="50mm"
   viewBox="0 0 50 50"
   version="1.1"
   id="svg8"
   sodipodi:docname="desenhando.svg"
   inkscape:version="0.92.0 r15299">
  <defs
     id="defs2" />
  <sodipodi:namedview
     id="base"
     pagecolor="#ffffff"
     bordercolor="#666666"
     borderopacity="1.0"
     inkscape:pageopacity="0.0"
     inkscape:pageshadow="2"
     inkscape:zoom="3.959798"
     inkscape:cx="178.33183"
     inkscape:cy="102.18124"
     inkscape:document-units="mm"
     inkscape:current-layer="layer1"
     showgrid="false"
     inkscape:window-width="1920"
     inkscape:window-height="1017"
     inkscape:window-x="-8"
     inkscape:window-y="-8"
     inkscape:window-maximized="1" />
  <metadata
     id="metadata5">
    <rdf:RDF>
      <cc:Work
         rdf:about="">
        <dc:format>image/svg+xml</dc:format>
        <dc:type
           rdf:resource="http://purl.org/dc/dcmitype/StillImage" />
        <dc:title></dc:title>
      </cc:Work>
    </rdf:RDF>
  </metadata>
  <g
     inkscape:label="Camada 1"
     inkscape:groupmode="layer"
     id="layer1"
     transform="translate(0,-247)">
    <g
       id="g11856"
       transform="translate(-28.915178,158.18303)">
      <path
         style="fill:#544aa6;stroke-width:0.26458332"
         d="m 37.880658,128.43579 c -1.158942,-0.70666 -1.405949,-1.28696 -1.405949,-3.30307 v -1.73718 h 1.18696 1.186959 l 0.06981,-8.53282 c 0.06818,-8.33315 0.08219,-8.53281 0.598978,-8.53281 0.518942,0 0.529167,0.17639 0.529167,9.12813 v 9.12812 l -1.256771,0.0806 c -1.201175,0.0771 -1.256771,0.11565 -1.256771,0.87193 0,0.48734 0.249449,1.04073 0.649432,1.44071 l 0.649432,0.64943 h 14.973011 14.973011 l 0.64943,-0.64943 c 0.405194,-0.40519 0.649433,-0.95247 0.649433,-1.45521 0,-0.7781 -0.04072,-0.80578 -1.185584,-0.80578 -1.010105,0 -1.207064,-0.0881 -1.330706,-0.59531 -0.07982,-0.32742 -0.11185,-4.46484 -0.07119,-9.19427 0.07221,-8.39792 0.08631,-8.59896 0.603101,-8.59896 0.516763,0 0.530802,0.19965 0.598959,8.51847 l 0.06979,8.51846 1.253124,0.0805 1.253125,0.0805 0.07967,1.2329 c 0.104021,1.6098 -0.494644,2.99027 -1.5851,3.65511 -0.8514,0.51908 -1.296289,0.53397 -15.957068,0.53397 -14.467439,0 -15.11556,-0.0209 -15.924259,-0.51402 z"
         id="path11935" />
      <path
         style="fill:#544aa6;stroke-width:0.26458332"
         d="m 50.504554,125.25455 c -0.467012,-0.46701 -0.949658,-0.52997 -4.564062,-0.59531 -3.841078,-0.0695 -4.041825,-0.0994 -4.041825,-0.60225 0,-0.50603 0.200553,-0.53233 4.587173,-0.60166 4.413694,-0.0697 4.592469,-0.0522 4.727213,0.46303 0.127883,0.48902 0.352869,0.53551 2.591864,0.53551 2.238995,0 2.46398,-0.0465 2.591864,-0.53551 0.134744,-0.51527 0.313519,-0.53278 4.727213,-0.46303 4.386618,0.0693 4.587172,0.0956 4.587172,0.60166 0,0.50289 -0.200747,0.5328 -4.041824,0.60225 -3.614405,0.0653 -4.09705,0.1283 -4.564062,0.59531 -0.453613,0.45361 -0.887302,0.52224 -3.300363,0.52224 -2.413061,0 -2.846751,-0.0686 -3.300363,-0.52224 z"
         id="path11933" />
      <path
         id="path11929"
         style="fill:#544aa6;stroke-width:0.26458332"
         d="m 48.873397,115.57472 1.418481,-1.70418 h 6.399957 c 4.624966,0 6.488013,-0.0881 6.717457,-0.3175 0.22793,-0.22793 0.3175,-1.97937 0.3175,-6.2084 0,-5.55337 -0.02932,-5.90659 -0.511773,-6.16479 -0.697065,-0.37306 -18.123139,-0.37306 -18.820204,0 -0.482532,0.25824 -0.511773,0.61165 -0.511773,6.18531 0,4.45507 0.08276,5.9801 0.33592,6.1902 0.184756,0.15334 0.869365,0.31675 1.521354,0.36313 l 1.185434,0.0843 0.07877,1.65364 c 0.04333,0.90951 0.162387,1.64663 0.264584,1.63805 0.102197,-0.009 0.824128,-0.78249 1.604292,-1.7198 z m -2.722498,3.43629 c -0.291741,-0.29174 -0.415774,-0.92318 -0.415774,-2.11666 v -1.7009 h -0.814102 c -0.54702,0 -1.067831,-0.25373 -1.5875,-0.77339 l -0.773398,-0.7734 v -6.12316 c 0,-3.88024 0.104719,-6.31884 0.28588,-6.65734 0.630957,-1.178952 1.520661,-1.283123 10.958912,-1.283123 9.438251,0 10.327954,0.104171 10.958912,1.283123 0.18116,0.3385 0.285879,2.7771 0.285879,6.65734 v 6.12316 l -0.773398,0.7734 -0.773396,0.77339 -6.304207,7e-4 -6.304207,7e-4 -1.788969,2.11597 c -0.983933,1.16378 -1.957694,2.11597 -2.163913,2.11597 -0.20622,0 -0.562043,-0.1871 -0.790719,-0.41578 z" />
      <path
         style="fill:#544aa6;stroke-width:0.26458332"
         d="m 51.08188,109.29646 c -0.612382,-0.62397 -1.113421,-1.33835 -1.113421,-1.5875 0,-0.66979 0.869725,-0.55558 1.5875,0.20845 0.341774,0.3638 0.752461,0.66146 0.912638,0.66146 0.160177,0 1.178239,-0.89297 2.262361,-1.98437 1.934231,-1.94723 2.910417,-2.45576 2.910417,-1.51613 0,0.48874 -4.70284,5.35258 -5.175404,5.35258 -0.148868,0 -0.771709,-0.51052 -1.384091,-1.13449 z"
         id="path11858" />
    </g>
  </g>
</svg>
