<?xml version="1.0" encoding="UTF-8" standalone="no"?>
<!-- Created with Inkscape (http://www.inkscape.org/) -->

<svg
   xmlns:dc="http://purl.org/dc/elements/1.1/"
   xmlns:cc="http://creativecommons.org/ns#"
   xmlns:rdf="http://www.w3.org/1999/02/22-rdf-syntax-ns#"
   xmlns:svg="http://www.w3.org/2000/svg"
   xmlns="http://www.w3.org/2000/svg"
   xmlns:sodipodi="http://sodipodi.sourceforge.net/DTD/sodipodi-0.dtd"
   xmlns:inkscape="http://www.inkscape.org/namespaces/inkscape"
   version="1.1"
   id="svg293"
   width="155"
   height="139"
   viewBox="0 0 155 139"
   sodipodi:docname="tipo1.svg"
   inkscape:version="0.92.0 r15299">
  <metadata
     id="metadata299">
    <rdf:RDF>
      <cc:Work
         rdf:about="">
        <dc:format>image/svg+xml</dc:format>
        <dc:type
           rdf:resource="http://purl.org/dc/dcmitype/StillImage" />
        <dc:title />
      </cc:Work>
    </rdf:RDF>
  </metadata>
  <defs
     id="defs297" />
  <sodipodi:namedview
     pagecolor="#ffffff"
     bordercolor="#666666"
     borderopacity="1"
     objecttolerance="10"
     gridtolerance="10"
     guidetolerance="10"
     inkscape:pageopacity="0"
     inkscape:pageshadow="2"
     inkscape:window-width="1920"
     inkscape:window-height="1017"
     id="namedview295"
     showgrid="false"
     inkscape:zoom="1.6978417"
     inkscape:cx="77.5"
     inkscape:cy="69.5"
     inkscape:window-x="-8"
     inkscape:window-y="-8"
     inkscape:window-maximized="1"
     inkscape:current-layer="svg293" />
  <path
     class="g1"
     id="path347"
     style="fill:#fefefe"
     d="m 127.64244,99.352976 0.2633,-33.75 6.9762,-0.5 6.9762,-0.5 -29.9762,-25.91084 C 95.395025,24.441174 81.000705,11.976199 79.894565,10.992192 77.924235,9.2394195 77.233965,9.7655814 45.902295,36.903033 l -31.98111,27.699943 6.99227,0.5 6.99228,0.5 0.2633,33.75 0.2633,33.750004 h 49.4734 49.473405 z M 22.012725,138.52119 c -0.33385,-0.86998 -0.60699,-16.15424 -0.60699,-33.96501 V 72.172942 l -10.25,-0.284983 L 0.9057353,71.602976 V 68.80713 c 0,-2.433029 4.85528,-7.007428 37.4144497,-35.25 24.38405,-21.15128 38.17059,-32.4541546 39.58555,-32.4541546 1.41496,0 15.20149,11.3028746 39.585545,32.4541546 32.55918,28.242572 37.41446,32.816971 37.41446,35.25 v 2.795846 l -10.25,0.284983 -10.25,0.284983 v 32.383238 c 0,17.81077 -0.27314,33.09503 -0.60699,33.96501 -0.54337,1.41599 -6.40188,1.58179 -55.893015,1.58179 -49.49113,0 -55.34965,-0.1658 -55.89301,-1.58179 z"
     inkscape:connector-curvature="0" />
  <path
     class="g2"
     id="path343"
     style="fill:#fefefe"
     d="M 90.868865,101.04153 C 101.55517,91.72456 104.82156,88.102798 107.86325,82.198189 111.29299,75.5403 107.66963,67.514883 99.8931,64.544999 c -4.244175,-1.620864 -4.733595,-1.619702 -9.030855,0.02144 -2.49892,0.954346 -5.50855,3.040483 -6.68806,4.635858 -1.19569,1.617251 -3.0843,2.900679 -4.26845,2.900679 -1.18416,0 -3.07277,-1.283428 -4.26845,-2.900683 -1.17952,-1.595375 -4.18914,-3.681512 -6.68806,-4.635858 -4.29726,-1.641138 -4.78668,-1.6423 -9.03085,-0.02144 -8.04466,3.072283 -11.39843,10.965273 -7.70931,18.143622 1.10642,2.152895 3.5158,5.61079 5.35417,7.684211 3.88509,4.381823 20.97042,19.564392 22.12745,19.663152 0.43172,0.0368 5.4619,-4.01065 11.17818,-8.99445 z m -22.69677,9.18657 c -19.3125,-16.694929 -24.72244,-23.943603 -24.72244,-33.125124 0,-11.216744 9.75685,-20.988846 20.95608,-20.988846 4.21977,0 9.85859,1.963142 12.72785,4.431178 l 2.73115,2.349233 2.80155,-2.357353 c 9.84699,-8.285698 26.344545,-4.115456 31.874475,8.057211 3.98721,8.776798 1.57484,17.695971 -7.34307,27.149201 -7.40406,7.84851 -25.526205,23.35938 -27.291955,23.35938 -0.80701,0 -6.08715,-3.9937 -11.73364,-8.87488 z"
     inkscape:connector-curvature="0" />
  <path
     class="g3"
     id="path323"
     style="opacity:0.79000005;fill:#fefefe"
     d="m 93.491465,34.706275 c -1.84064,-2.217834 -0.96048,-6.049687 1.46944,-6.397319 2.926745,-0.41871 6.188595,3.387994 4.800665,5.602556 -1.40342,2.239286 -4.722145,2.659947 -6.270105,0.794763 z m 17.611095,15.741078 c -9.14732,-8.144449 -10.75672,-10.019252 -10.5,-12.231575 0.59076,-5.091145 3.74644,-3.765154 15.34697,6.448683 8.75067,7.704645 10.95621,10.17919 10.95621,12.292528 0,2.093966 -0.52156,2.694299 -2.5,2.877562 -1.90888,0.176819 -5.05438,-2.042758 -13.30318,-9.387198 z"
     inkscape:connector-curvature="0" />
</svg>
