<?xml version="1.0" encoding="UTF-8" standalone="no"?>
<!-- Created with Inkscape (http://www.inkscape.org/) -->

<svg
   xmlns:dc="http://purl.org/dc/elements/1.1/"
   xmlns:cc="http://creativecommons.org/ns#"
   xmlns:rdf="http://www.w3.org/1999/02/22-rdf-syntax-ns#"
   xmlns:svg="http://www.w3.org/2000/svg"
   xmlns="http://www.w3.org/2000/svg"
   xmlns:sodipodi="http://sodipodi.sourceforge.net/DTD/sodipodi-0.dtd"
   xmlns:inkscape="http://www.inkscape.org/namespaces/inkscape"
   version="1.1"
   id="svg20"
   width="160"
   height="160"
   viewBox="0 0 160 160"
   sodipodi:docname="tipo2.svg"
   inkscape:version="0.92.0 r15299">
  <metadata
     id="metadata26">
    <rdf:RDF>
      <cc:Work
         rdf:about="">
        <dc:format>image/svg+xml</dc:format>
        <dc:type
           rdf:resource="http://purl.org/dc/dcmitype/StillImage" />
        <dc:title />
      </cc:Work>
    </rdf:RDF>
  </metadata>
  <defs
     id="defs24" />
  <sodipodi:namedview
     pagecolor="#ffffff"
     bordercolor="#666666"
     borderopacity="1"
     objecttolerance="10"
     gridtolerance="10"
     guidetolerance="10"
     inkscape:pageopacity="0"
     inkscape:pageshadow="2"
     inkscape:window-width="1920"
     inkscape:window-height="1017"
     id="namedview22"
     showgrid="false"
     inkscape:zoom="1.475"
     inkscape:cx="-38.983051"
     inkscape:cy="80"
     inkscape:window-x="-8"
     inkscape:window-y="-8"
     inkscape:window-maximized="1"
     inkscape:current-layer="svg20" />
  <path
     class="f1"
     id="path90"
     style="fill:#fefefe"
     d="m 20.68105,135.54545 c 2.90126,-2.90126 3.11597,-6.944 0.99933,-18.81664 -1.37254,-7.69888 -3.96497,-13.70221 -6.24529,-14.46231 -2.86015,-0.95338 -7.24949,14.13295 -7.28213,25.02895 -0.0145,4.83326 0.39015,6.20298 2.43718,8.25 1.35,1.35 3.62045,2.45455 5.04545,2.45455 1.425,0 3.69546,-1.10455 5.04546,-2.45455 z m -7.87879,23.78788 c -0.36667,-0.36666 -0.66667,-3.86433 -0.66667,-7.77259 v -7.10593 l -3.57727,-1.92649 c -5.70789,-3.07391 -6.7456,-6.1818 -6.16447,-18.46239 0.55766,-11.78475 3.23734,-21.83566 6.84561,-25.676486 3.09646,-3.296035 9.08235,-3.294133 12.38042,0.0039 4.02384,4.023836 6.8983,15.496616 6.96112,27.783756 0.0537,10.50941 0.008,10.72598 -2.9177,13.78674 -1.63476,1.71029 -3.99726,3.36686 -5.25,3.68128 -2.12957,0.53452 -2.27771,1.08496 -2.27771,8.46329 0,7.60071 -0.086,7.89159 -2.33333,7.89159 -1.28333,0 -2.63333,-0.3 -3,-0.66667 z" />
  <path
     class="f2"
     id="path123"
     style="fill:#fefefe"
     d="m 124.20817,157.36514 c -1.13992,-1.44917 -2.07258,-3.86348 -2.07258,-5.36514 0,-3.94576 3.53002,-8 6.96559,-8 1.5858,0 3.07265,-0.65727 3.39661,-1.50148 0.31689,-0.82582 2.11497,-2.23529 3.99574,-3.13217 4.35147,-2.07507 9.65536,-1.18635 12.81719,2.14764 4.91735,5.1851 4.82487,6.15332 4.82487,-50.51399 V 38 h -14.87756 c -11.94792,0 -15.12061,-0.292867 -16.11187,-1.487265 -0.67888,-0.817996 -0.9731,-2.167996 -0.65383,-3 C 122.9816,32.237725 125.98502,32 141.60421,32 h 18.53138 v 62 c 0,60.66667 -0.043,62.04301 -2,64 -1.82136,1.82136 -3.33333,2 -16.92742,2 H 126.28075 Z M 153.63559,152 c 0,-1.01377 -1.03763,-1.51115 -3.20107,-1.53441 -1.76059,-0.0189 -3.33559,-0.24392 -3.5,-0.5 -0.16441,-0.25607 -0.79432,-1.36559 -1.39979,-2.46559 -1.83368,-3.33135 -5.84076,-3.09292 -8.39898,0.49977 -1.87785,2.63721 -2.65686,3.0149 -5.10797,2.47655 -2.47657,-0.54394 -2.89219,-0.33198 -2.89219,1.475 0,2.04742 0.36466,2.10188 12.25,1.82946 10.09743,-0.23144 12.25,-0.54436 12.25,-1.78078 z M 128.8419,133.37252 c -0.38847,-0.38801 -0.70631,-5.35585 -0.70631,-11.03919 V 112 h 8.03383 8.03383 l -0.28383,10.75 -0.28383,10.75 -7.04369,0.28965 c -3.87403,0.1593 -7.36153,-0.0282 -7.75,-0.41667 z M 138.13559,123 c 0,-4.33333 -0.26667,-5 -2,-5 -1.73333,0 -2,0.66667 -2,5 0,4.33333 0.26667,5 2,5 1.73333,0 2,-0.66667 2,-5 z m -9.29369,-21.62702 c -0.38847,-0.38847 -0.70631,-5.356313 -0.70631,-11.039647 V 80 h 8.03383 8.03383 l -0.28383,10.75 -0.28383,10.75 -7.04369,0.28965 c -3.87403,0.1593 -7.36153,-0.0282 -7.75,-0.41667 z M 138.13559,91 c 0,-4.333333 -0.26667,-5 -2,-5 -1.73333,0 -2,0.666667 -2,5 0,4.333333 0.26667,5 2,5 1.73333,0 2,-0.666667 2,-5 z M 128.8419,69.372979 c -0.38847,-0.388472 -0.70631,-5.356312 -0.70631,-11.039646 V 48 h 8.03383 8.03383 l -0.28383,10.75 -0.28383,10.75 -7.04369,0.289645 c -3.87403,0.159305 -7.36153,-0.02819 -7.75,-0.416666 z M 138.13559,59 c 0,-4.333333 -0.26667,-5 -2,-5 -1.73333,0 -2,0.666667 -2,5 0,4.333333 0.26667,5 2,5 1.73333,0 2,-0.666667 2,-5 z" />
  <path
     class="f3"
     id="path117"
     style="fill:#fefefe"
     d="m 37.33333,154.75 0.30226,-5.25 h 40 40 v 2.5 2.5 l -37.25,0.26217 -37.25,0.26217 v 2.48783 c 0,2.10705 -0.46716,2.48783 -3.05226,2.48783 h -3.05226 z m 5.26208,-12 C 42.33284,142.0625 42.23446,109.775 42.3768,71 L 42.63559,0.5 h 37.5 37.5 V 72 143.5 l -2.75,0.31642 -2.75,0.31642 V 75.066422 6 h -32 -32 v 69 69 h -2.53138 c -1.39226,0 -2.74622,-0.5625 -3.0088,-1.25 z m 21.54018,-11.63132 v -13.01416 l -5.25,-0.30226 C 53.9889,117.52034 53.6143,117.31493 53.31917,114.75 L 53.00275,112 h 27.13284 27.13284 l -0.31642,2.75 c -0.29513,2.56493 -0.66973,2.77034 -5.56642,3.05226 l -5.25,0.30226 v 13.01416 13.01416 l -2.75,-0.31642 L 90.63559,143.5 90.35572,130.75 90.07584,118 h -9.94025 -9.94024 l -0.27988,12.75 -0.27988,12.75 -2.75,0.31642 -2.75,0.31642 z m 13.70885,2.25684 c -0.38986,-0.38987 -0.70885,-1.75885 -0.70885,-3.04219 0,-1.93715 0.52065,-2.33333 3.06643,-2.33333 2.75523,0 3.03431,0.27908 2.75,2.75 -0.31018,2.69573 -3.4324,4.30069 -5.10758,2.62552 z M 59.25292,100.64137 C 58.46354,99.690221 58.15593,96.027314 58.34673,89.850715 L 58.63559,80.5 66.91984,80.209004 75.20409,79.918009 74.91984,90.709004 74.63559,101.5 l -7.09381,0.29066 c -5.23243,0.21439 -7.40739,-0.0872 -8.28886,-1.14929 z M 69.13559,91 c 0,-4.666667 -0.16666,-5 -2.5,-5 -2.33333,0 -2.5,0.333333 -2.5,5 0,4.666667 0.16667,5 2.5,5 2.33334,0 2.5,-0.333333 2.5,-5 z m 16.66667,10.33333 C 85.43559,100.96667 85.13559,95.998468 85.13559,90.292891 V 79.919115 l 8.25,0.290443 8.25,0.290442 0.28886,9.350715 c 0.18643,6.034987 -0.12294,9.846896 -0.87245,10.750005 -1.20455,1.4514 -13.92009,2.06227 -15.24974,0.73261 z M 96.13559,91 c 0,-4.666667 -0.16666,-5 -2.5,-5 -2.33333,0 -2.5,0.333333 -2.5,5 0,4.666667 0.16667,5 2.5,5 2.33334,0 2.5,-0.333333 2.5,-5 z M 59.25292,68.641372 C 58.46354,67.690221 58.15593,64.027314 58.34673,57.850715 L 58.63559,48.5 66.91984,48.209004 75.20409,47.918009 74.91984,58.709004 74.63559,69.5 67.54178,69.790657 c -5.23243,0.21439 -7.40739,-0.08718 -8.28886,-1.149285 z M 69.13559,59 c 0,-4.666667 -0.16666,-5 -2.5,-5 -2.33333,0 -2.5,0.333333 -2.5,5 0,4.666667 0.16667,5 2.5,5 2.33334,0 2.5,-0.333333 2.5,-5 z M 85.80226,69.333333 C 85.43559,68.966667 85.13559,63.998468 85.13559,58.292891 V 47.919115 l 8.25,0.290443 8.25,0.290442 0.28886,9.350715 c 0.18643,6.034987 -0.12294,9.846896 -0.87245,10.75 -1.20455,1.4514 -13.92009,2.062272 -15.24974,0.732618 z M 96.13559,59 c 0,-4.666667 -0.16666,-5 -2.5,-5 -2.33333,0 -2.5,0.333333 -2.5,5 0,4.666667 0.16667,5 2.5,5 2.33334,0 2.5,-0.333333 2.5,-5 z M 59.25292,36.641372 C 58.46354,35.690221 58.15593,32.027314 58.34673,25.850715 L 58.63559,16.5 66.91984,16.209004 75.20409,15.918009 74.91984,26.709004 74.63559,37.5 67.54178,37.790657 c -5.23243,0.21439 -7.40739,-0.08718 -8.28886,-1.149285 z M 69.13559,27 c 0,-4.666667 -0.16666,-5 -2.5,-5 -2.33333,0 -2.5,0.333333 -2.5,5 0,4.666667 0.16667,5 2.5,5 2.33334,0 2.5,-0.333333 2.5,-5 z M 85.80226,37.333333 C 85.43559,36.966667 85.13559,31.998468 85.13559,26.292891 V 15.919115 l 8.25,0.290443 8.25,0.290442 0.28886,9.350715 c 0.18643,6.034987 -0.12294,9.846896 -0.87245,10.75 -1.20455,1.4514 -13.92009,2.062272 -15.24974,0.732618 z M 96.13559,27 c 0,-4.666667 -0.16666,-5 -2.5,-5 -2.33333,0 -2.5,0.333333 -2.5,5 0,4.666667 0.16667,5 2.5,5 2.33334,0 2.5,-0.333333 2.5,-5 z" />
  <path
     class="f4"
     id="path32"
     style="fill:#fefefe"
     d="M 27.36478,100.82919 C 26.63355,100.09795 26.13559,96.845258 26.13559,92.8 c 0,-6.051669 -0.21244,-6.8 -1.93045,-6.8 -1.24059,0 -2.04464,0.804043 -2.25,2.25 -0.23407,1.64812 -0.9883,2.25 -2.81955,2.25 -2.31082,0 -2.52287,-0.397269 -2.80226,-5.25 L 16.03107,80 h 8.0861 8.08609 l -0.28383,10.738145 c -0.22899,8.66306 -0.57772,10.794385 -1.80465,11.029185 -0.83645,0.16007 -2.07395,-0.26209 -2.75,-0.93814 z M 0.84444,90.375516 C 0.45458,89.985649 0.13559,76.691667 0.13559,60.833333 V 32 h 18.53139 c 15.61919,0 18.62261,0.237725 19.11187,1.512735 0.31927,0.832004 0.025,2.182004 -0.65383,3 C 36.13387,37.706997 32.96298,38 21.02975,38 H 6.1688 L 5.9022,64.25 C 5.64257,89.813512 5.58221,90.507641 3.59444,90.792183 c -1.12263,0.1607 -2.36013,-0.0268 -2.75,-0.416667 z M 26.13559,59 c 0,-4.333333 -0.26666,-5 -2,-5 -1.73333,0 -2,0.666667 -2,5 0,4.333333 0.26667,5 2,5 1.73334,0 2,-0.666667 2,-5 z M 16.84191,69.372979 C 16.45343,68.984507 16.13559,64.016667 16.13559,58.333333 V 48 h 8.03384 8.03383 l -0.28383,10.75 -0.28384,10.75 -7.04368,0.289645 c -3.87403,0.159305 -7.36153,-0.02819 -7.75,-0.416666 z" />
</svg>
